# xmcd CD database file
#
# Track frame offsets:
#	150
#	9793
#	16248
#	22783
#	34613
#	88463
#	106195
#	119888
#	153928
#	174788
#	202760
#	225788
#
# Disc length: 3300 seconds
#
# Revision: 1
# Processed by: cddbd v1.5.2PL0 Copyright (c) Steve Scherf et al.
# Submitted via: CDex 1.70beta2
#
DISCID=750ce20c
DTITLE=小泉文夫 - 小泉文夫の遺産民族音楽の礎-06 ナイルの歌 アラブ連合の近代音楽
DYEAR=1900
DGENRE=World
TTITLE0=6拍子のラスト(音楽教育の1 リズムの教育)
TTITLE1=9拍子のホギャーズ(音楽教育の1 リズムの教育)
TTITLE2=歌と踊り(音楽教育の2 リズムの教育)
TTITLE3=オペレッタ「十人の善人」(音楽教育の2 リズムの教育)
TTITLE4=サラメイヤとアルグールの舞曲(新しい民俗音楽の1)
TTITLE5=オーケストラの舞曲(新しい民俗音楽の2)
TTITLE6=民俗リズムによるメロディー(新しい民俗音楽の2)
TTITLE7=カーヌーン「シュールレアリズム」(古典楽器による新曲)
TTITLE8=ボゾックの新曲「一夜」(古典楽器による新曲)
TTITLE9=恋しき瞳(ヴァイオリンとオーケストラの曲)
TTITLE10=オム・クルスーム(ヴァイオリンとオーケストラの曲)
TTITLE11=軽音楽メドレー
EXTD=
EXTT0=
EXTT1=
EXTT2=
EXTT3=
EXTT4=
EXTT5=
EXTT6=
EXTT7=
EXTT8=
EXTT9=
EXTT10=
EXTT11=
PLAYORDER=
